<svg width="640" height="440"
xmlns="http://www.w3.org/2000/svg"
xmlns:xlink="http://www.w3.org/1999/xlink">
<line x1="20.000000" y1="20.000000" x2="620.000000" y2="20.000000" style = "stroke: black;"/>
<line x1="620.000000" y1="20.000000" x2="620.000000" y2="420.000000" style = "stroke: black;"/>
<line x1="620.000000" y1="420.000000" x2="20.000000" y2="420.000000" style = "stroke: black;"/>
<line x1="20.000000" y1="420.000000" x2="20.000000" y2="20.000000" style = "stroke: black;"/>
<circle cx="20.000000" cy="220.000000" r="2.000000" style="fill: blue;"/>
<circle cx="26.060606" cy="282.406689" r="2.000000" style="fill: blue;"/>
<circle cx="32.121212" cy="338.581586" r="2.000000" style="fill: blue;"/>
<circle cx="38.181818" cy="382.915190" r="2.000000" style="fill: blue;"/>
<circle cx="44.242424" cy="410.980448" r="2.000000" style="fill: blue;"/>
<circle cx="50.303030" cy="419.974826" r="2.000000" style="fill: blue;"/>
<circle cx="56.363636" cy="409.000164" r="2.000000" style="fill: blue;"/>
<circle cx="62.424242" cy="379.152368" r="2.000000" style="fill: blue;"/>
<circle cx="68.484848" cy="333.411973" r="2.000000" style="fill: blue;"/>
<circle cx="74.545455" cy="276.346511" r="2.000000" style="fill: blue;"/>
<circle cx="80.606061" cy="213.654413" r="2.000000" style="fill: blue;"/>
<circle cx="86.666667" cy="151.595971" r="2.000000" style="fill: blue;"/>
<circle cx="92.727273" cy="96.368203" r="2.000000" style="fill: blue;"/>
<circle cx="98.787879" cy="53.486029" r="2.000000" style="fill: blue;"/>
<circle cx="104.848485" cy="27.231568" r="2.000000" style="fill: blue;"/>
<circle cx="110.909091" cy="20.226532" r="2.000000" style="fill: blue;"/>
<circle cx="116.969697" cy="33.170428" r="2.000000" style="fill: blue;"/>
<circle cx="123.030303" cy="64.770707" r="2.000000" style="fill: blue;"/>
<circle cx="129.090909" cy="111.871837" r="2.000000" style="fill: blue;"/>
<circle cx="135.151515" cy="169.770403" r="2.000000" style="fill: blue;"/>
<circle cx="141.212121" cy="232.684784" r="2.000000" style="fill: blue;"/>
<circle cx="147.272727" cy="294.332491" r="2.000000" style="fill: blue;"/>
<circle cx="153.333333" cy="348.557522" r="2.000000" style="fill: blue;"/>
<circle cx="159.393939" cy="389.945086" r="2.000000" style="fill: blue;"/>
<circle cx="165.454545" cy="414.362314" r="2.000000" style="fill: blue;"/>
<circle cx="171.515152" cy="419.370955" r="2.000000" style="fill: blue;"/>
<circle cx="177.575758" cy="404.470859" r="2.000000" style="fill: blue;"/>
<circle cx="183.636364" cy="371.149915" r="2.000000" style="fill: blue;"/>
<circle cx="189.696970" cy="322.735478" r="2.000000" style="fill: blue;"/>
<circle cx="195.757576" cy="264.062107" r="2.000000" style="fill: blue;"/>
<circle cx="201.818182" cy="200.988791" r="2.000000" style="fill: blue;"/>
<circle cx="207.878788" cy="139.813893" r="2.000000" style="fill: blue;"/>
<circle cx="213.939394" cy="86.646200" r="2.000000" style="fill: blue;"/>
<circle cx="220.000000" cy="46.794919" r="2.000000" style="fill: blue;"/>
<circle cx="226.060606" cy="24.239511" r="2.000000" style="fill: blue;"/>
<circle cx="232.121212" cy="21.232307" r="2.000000" style="fill: blue;"/>
<circle cx="238.181818" cy="38.073601" r="2.000000" style="fill: blue;"/>
<circle cx="244.242424" cy="73.081658" r="2.000000" style="fill: blue;"/>
<circle cx="250.303030" cy="122.760653" r="2.000000" style="fill: blue;"/>
<circle cx="256.363636" cy="182.149751" r="2.000000" style="fill: blue;"/>
<circle cx="262.424242" cy="245.318491" r="2.000000" style="fill: blue;"/>
<circle cx="268.484848" cy="305.958982" r="2.000000" style="fill: blue;"/>
<circle cx="274.545455" cy="358.015802" r="2.000000" style="fill: blue;"/>
<circle cx="280.606061" cy="396.290673" r="2.000000" style="fill: blue;"/>
<circle cx="286.666667" cy="416.961551" r="2.000000" style="fill: blue;"/>
<circle cx="292.727273" cy="417.964288" r="2.000000" style="fill: blue;"/>
<circle cx="298.787879" cy="399.198755" r="2.000000" style="fill: blue;"/>
<circle cx="304.848485" cy="362.538834" r="2.000000" style="fill: blue;"/>
<circle cx="310.909091" cy="311.645304" r="2.000000" style="fill: blue;"/>
<circle cx="316.969697" cy="251.600279" r="2.000000" style="fill: blue;"/>
<circle cx="323.030303" cy="188.399721" r="2.000000" style="fill: blue;"/>
<circle cx="329.090909" cy="128.354696" r="2.000000" style="fill: blue;"/>
<circle cx="335.151515" cy="77.461166" r="2.000000" style="fill: blue;"/>
<circle cx="341.212121" cy="40.801245" r="2.000000" style="fill: blue;"/>
<circle cx="347.272727" cy="22.035712" r="2.000000" style="fill: blue;"/>
<circle cx="353.333333" cy="23.038449" r="2.000000" style="fill: blue;"/>
<circle cx="359.393939" cy="43.709327" r="2.000000" style="fill: blue;"/>
<circle cx="365.454545" cy="81.984198" r="2.000000" style="fill: blue;"/>
<circle cx="371.515152" cy="134.041018" r="2.000000" style="fill: blue;"/>
<circle cx="377.575758" cy="194.681509" r="2.000000" style="fill: blue;"/>
<circle cx="383.636364" cy="257.850249" r="2.000000" style="fill: blue;"/>
<circle cx="389.696970" cy="317.239347" r="2.000000" style="fill: blue;"/>
<circle cx="395.757576" cy="366.918342" r="2.000000" style="fill: blue;"/>
<circle cx="401.818182" cy="401.926399" r="2.000000" style="fill: blue;"/>
<circle cx="407.878788" cy="418.767693" r="2.000000" style="fill: blue;"/>
<circle cx="413.939394" cy="415.760489" r="2.000000" style="fill: blue;"/>
<circle cx="420.000000" cy="393.205081" r="2.000000" style="fill: blue;"/>
<circle cx="426.060606" cy="353.353800" r="2.000000" style="fill: blue;"/>
<circle cx="432.121212" cy="300.186107" r="2.000000" style="fill: blue;"/>
<circle cx="438.181818" cy="239.011209" r="2.000000" style="fill: blue;"/>
<circle cx="444.242424" cy="175.937893" r="2.000000" style="fill: blue;"/>
<circle cx="450.303030" cy="117.264522" r="2.000000" style="fill: blue;"/>
<circle cx="456.363636" cy="68.850085" r="2.000000" style="fill: blue;"/>
<circle cx="462.424242" cy="35.529141" r="2.000000" style="fill: blue;"/>
<circle cx="468.484848" cy="20.629045" r="2.000000" style="fill: blue;"/>
<circle cx="474.545455" cy="25.637686" r="2.000000" style="fill: blue;"/>
<circle cx="480.606061" cy="50.054914" r="2.000000" style="fill: blue;"/>
<circle cx="486.666667" cy="91.442478" r="2.000000" style="fill: blue;"/>
<circle cx="492.727273" cy="145.667509" r="2.000000" style="fill: blue;"/>
<circle cx="498.787879" cy="207.315216" r="2.000000" style="fill: blue;"/>
<circle cx="504.848485" cy="270.229597" r="2.000000" style="fill: blue;"/>
<circle cx="510.909091" cy="328.128163" r="2.000000" style="fill: blue;"/>
<circle cx="516.969697" cy="375.229293" r="2.000000" style="fill: blue;"/>
<circle cx="523.030303" cy="406.829572" r="2.000000" style="fill: blue;"/>
<circle cx="529.090909" cy="419.773468" r="2.000000" style="fill: blue;"/>
<circle cx="535.151515" cy="412.768432" r="2.000000" style="fill: blue;"/>
<circle cx="541.212121" cy="386.513971" r="2.000000" style="fill: blue;"/>
<circle cx="547.272727" cy="343.631797" r="2.000000" style="fill: blue;"/>
<circle cx="553.333333" cy="288.404029" r="2.000000" style="fill: blue;"/>
<circle cx="559.393939" cy="226.345587" r="2.000000" style="fill: blue;"/>
<circle cx="565.454545" cy="163.653489" r="2.000000" style="fill: blue;"/>
<circle cx="571.515152" cy="106.588027" r="2.000000" style="fill: blue;"/>
<circle cx="577.575758" cy="60.847632" r="2.000000" style="fill: blue;"/>
<circle cx="583.636364" cy="30.999836" r="2.000000" style="fill: blue;"/>
<circle cx="589.696970" cy="20.025174" r="2.000000" style="fill: blue;"/>
<circle cx="595.757576" cy="29.019552" r="2.000000" style="fill: blue;"/>
<circle cx="601.818182" cy="57.084810" r="2.000000" style="fill: blue;"/>
<circle cx="607.878788" cy="101.418414" r="2.000000" style="fill: blue;"/>
<circle cx="613.939394" cy="157.593311" r="2.000000" style="fill: blue;"/>
<circle cx="620.000000" cy="220.000000" r="2.000000" style="fill: blue;"/>
<polyline points="20.000000 220.000000 26.060606 282.406689 32.121212 338.581586 38.181818 382.915190 44.242424 410.980448 50.303030 419.974826 56.363636 409.000164 62.424242 379.152368 68.484848 333.411973 74.545455 276.346511 80.606061 213.654413 86.666667 151.595971 92.727273 96.368203 98.787879 53.486029 104.848485 27.231568 110.909091 20.226532 116.969697 33.170428 123.030303 64.770707 129.090909 111.871837 135.151515 169.770403 141.212121 232.684784 147.272727 294.332491 153.333333 348.557522 159.393939 389.945086 165.454545 414.362314 171.515152 419.370955 177.575758 404.470859 183.636364 371.149915 189.696970 322.735478 195.757576 264.062107 201.818182 200.988791 207.878788 139.813893 213.939394 86.646200 220.000000 46.794919 226.060606 24.239511 232.121212 21.232307 238.181818 38.073601 244.242424 73.081658 250.303030 122.760653 256.363636 182.149751 262.424242 245.318491 268.484848 305.958982 274.545455 358.015802 280.606061 396.290673 286.666667 416.961551 292.727273 417.964288 298.787879 399.198755 304.848485 362.538834 310.909091 311.645304 316.969697 251.600279 323.030303 188.399721 329.090909 128.354696 335.151515 77.461166 341.212121 40.801245 347.272727 22.035712 353.333333 23.038449 359.393939 43.709327 365.454545 81.984198 371.515152 134.041018 377.575758 194.681509 383.636364 257.850249 389.696970 317.239347 395.757576 366.918342 401.818182 401.926399 407.878788 418.767693 413.939394 415.760489 420.000000 393.205081 426.060606 353.353800 432.121212 300.186107 438.181818 239.011209 444.242424 175.937893 450.303030 117.264522 456.363636 68.850085 462.424242 35.529141 468.484848 20.629045 474.545455 25.637686 480.606061 50.054914 486.666667 91.442478 492.727273 145.667509 498.787879 207.315216 504.848485 270.229597 510.909091 328.128163 516.969697 375.229293 523.030303 406.829572 529.090909 419.773468 535.151515 412.768432 541.212121 386.513971 547.272727 343.631797 553.333333 288.404029 559.393939 226.345587 565.454545 163.653489 571.515152 106.588027 577.575758 60.847632 583.636364 30.999836 589.696970 20.025174 595.757576 29.019552 601.818182 57.084810 607.878788 101.418414 613.939394 157.593311 620.000000 220.000000 " style="stroke: blue; fill: none;"/>
</svg>
