<svg width="640" height="440"
xmlns="http://www.w3.org/2000/svg"
xmlns:xlink="http://www.w3.org/1999/xlink">
<line x1="20.000000" y1="20.000000" x2="620.000000" y2="20.000000" style = "stroke: black;"/>
<line x1="620.000000" y1="20.000000" x2="620.000000" y2="420.000000" style = "stroke: black;"/>
<line x1="620.000000" y1="420.000000" x2="20.000000" y2="420.000000" style = "stroke: black;"/>
<line x1="20.000000" y1="420.000000" x2="20.000000" y2="20.000000" style = "stroke: black;"/>
<circle cx="20.000000" cy="220.000000" r="2.000000" style="fill: blue;"/>
<circle cx="26.060606" cy="188.399721" r="2.000000" style="fill: blue;"/>
<circle cx="32.121212" cy="157.593311" r="2.000000" style="fill: blue;"/>
<circle cx="38.181818" cy="128.354696" r="2.000000" style="fill: blue;"/>
<circle cx="44.242424" cy="101.418414" r="2.000000" style="fill: blue;"/>
<circle cx="50.303030" cy="77.461166" r="2.000000" style="fill: blue;"/>
<circle cx="56.363636" cy="57.084810" r="2.000000" style="fill: blue;"/>
<circle cx="62.424242" cy="40.801245" r="2.000000" style="fill: blue;"/>
<circle cx="68.484848" cy="29.019552" r="2.000000" style="fill: blue;"/>
<circle cx="74.545455" cy="22.035712" r="2.000000" style="fill: blue;"/>
<circle cx="80.606061" cy="20.025174" r="2.000000" style="fill: blue;"/>
<circle cx="86.666667" cy="23.038449" r="2.000000" style="fill: blue;"/>
<circle cx="92.727273" cy="30.999836" r="2.000000" style="fill: blue;"/>
<circle cx="98.787879" cy="43.709327" r="2.000000" style="fill: blue;"/>
<circle cx="104.848485" cy="60.847632" r="2.000000" style="fill: blue;"/>
<circle cx="110.909091" cy="81.984198" r="2.000000" style="fill: blue;"/>
<circle cx="116.969697" cy="106.588027" r="2.000000" style="fill: blue;"/>
<circle cx="123.030303" cy="134.041018" r="2.000000" style="fill: blue;"/>
<circle cx="129.090909" cy="163.653489" r="2.000000" style="fill: blue;"/>
<circle cx="135.151515" cy="194.681509" r="2.000000" style="fill: blue;"/>
<circle cx="141.212121" cy="226.345587" r="2.000000" style="fill: blue;"/>
<circle cx="147.272727" cy="257.850249" r="2.000000" style="fill: blue;"/>
<circle cx="153.333333" cy="288.404029" r="2.000000" style="fill: blue;"/>
<circle cx="159.393939" cy="317.239347" r="2.000000" style="fill: blue;"/>
<circle cx="165.454545" cy="343.631797" r="2.000000" style="fill: blue;"/>
<circle cx="171.515152" cy="366.918342" r="2.000000" style="fill: blue;"/>
<circle cx="177.575758" cy="386.513971" r="2.000000" style="fill: blue;"/>
<circle cx="183.636364" cy="401.926399" r="2.000000" style="fill: blue;"/>
<circle cx="189.696970" cy="412.768432" r="2.000000" style="fill: blue;"/>
<circle cx="195.757576" cy="418.767693" r="2.000000" style="fill: blue;"/>
<circle cx="201.818182" cy="419.773468" r="2.000000" style="fill: blue;"/>
<circle cx="207.878788" cy="415.760489" r="2.000000" style="fill: blue;"/>
<circle cx="213.939394" cy="406.829572" r="2.000000" style="fill: blue;"/>
<circle cx="220.000000" cy="393.205081" r="2.000000" style="fill: blue;"/>
<circle cx="226.060606" cy="375.229293" r="2.000000" style="fill: blue;"/>
<circle cx="232.121212" cy="353.353800" r="2.000000" style="fill: blue;"/>
<circle cx="238.181818" cy="328.128163" r="2.000000" style="fill: blue;"/>
<circle cx="244.242424" cy="300.186107" r="2.000000" style="fill: blue;"/>
<circle cx="250.303030" cy="270.229597" r="2.000000" style="fill: blue;"/>
<circle cx="256.363636" cy="239.011209" r="2.000000" style="fill: blue;"/>
<circle cx="262.424242" cy="207.315216" r="2.000000" style="fill: blue;"/>
<circle cx="268.484848" cy="175.937893" r="2.000000" style="fill: blue;"/>
<circle cx="274.545455" cy="145.667509" r="2.000000" style="fill: blue;"/>
<circle cx="280.606061" cy="117.264522" r="2.000000" style="fill: blue;"/>
<circle cx="286.666667" cy="91.442478" r="2.000000" style="fill: blue;"/>
<circle cx="292.727273" cy="68.850085" r="2.000000" style="fill: blue;"/>
<circle cx="298.787879" cy="50.054914" r="2.000000" style="fill: blue;"/>
<circle cx="304.848485" cy="35.529141" r="2.000000" style="fill: blue;"/>
<circle cx="310.909091" cy="25.637686" r="2.000000" style="fill: blue;"/>
<circle cx="316.969697" cy="20.629045" r="2.000000" style="fill: blue;"/>
<circle cx="323.030303" cy="20.629045" r="2.000000" style="fill: blue;"/>
<circle cx="329.090909" cy="25.637686" r="2.000000" style="fill: blue;"/>
<circle cx="335.151515" cy="35.529141" r="2.000000" style="fill: blue;"/>
<circle cx="341.212121" cy="50.054914" r="2.000000" style="fill: blue;"/>
<circle cx="347.272727" cy="68.850085" r="2.000000" style="fill: blue;"/>
<circle cx="353.333333" cy="91.442478" r="2.000000" style="fill: blue;"/>
<circle cx="359.393939" cy="117.264522" r="2.000000" style="fill: blue;"/>
<circle cx="365.454545" cy="145.667509" r="2.000000" style="fill: blue;"/>
<circle cx="371.515152" cy="175.937893" r="2.000000" style="fill: blue;"/>
<circle cx="377.575758" cy="207.315216" r="2.000000" style="fill: blue;"/>
<circle cx="383.636364" cy="239.011209" r="2.000000" style="fill: blue;"/>
<circle cx="389.696970" cy="270.229597" r="2.000000" style="fill: blue;"/>
<circle cx="395.757576" cy="300.186107" r="2.000000" style="fill: blue;"/>
<circle cx="401.818182" cy="328.128163" r="2.000000" style="fill: blue;"/>
<circle cx="407.878788" cy="353.353800" r="2.000000" style="fill: blue;"/>
<circle cx="413.939394" cy="375.229293" r="2.000000" style="fill: blue;"/>
<circle cx="420.000000" cy="393.205081" r="2.000000" style="fill: blue;"/>
<circle cx="426.060606" cy="406.829572" r="2.000000" style="fill: blue;"/>
<circle cx="432.121212" cy="415.760489" r="2.000000" style="fill: blue;"/>
<circle cx="438.181818" cy="419.773468" r="2.000000" style="fill: blue;"/>
<circle cx="444.242424" cy="418.767693" r="2.000000" style="fill: blue;"/>
<circle cx="450.303030" cy="412.768432" r="2.000000" style="fill: blue;"/>
<circle cx="456.363636" cy="401.926399" r="2.000000" style="fill: blue;"/>
<circle cx="462.424242" cy="386.513971" r="2.000000" style="fill: blue;"/>
<circle cx="468.484848" cy="366.918342" r="2.000000" style="fill: blue;"/>
<circle cx="474.545455" cy="343.631797" r="2.000000" style="fill: blue;"/>
<circle cx="480.606061" cy="317.239347" r="2.000000" style="fill: blue;"/>
<circle cx="486.666667" cy="288.404029" r="2.000000" style="fill: blue;"/>
<circle cx="492.727273" cy="257.850249" r="2.000000" style="fill: blue;"/>
<circle cx="498.787879" cy="226.345587" r="2.000000" style="fill: blue;"/>
<circle cx="504.848485" cy="194.681509" r="2.000000" style="fill: blue;"/>
<circle cx="510.909091" cy="163.653489" r="2.000000" style="fill: blue;"/>
<circle cx="516.969697" cy="134.041018" r="2.000000" style="fill: blue;"/>
<circle cx="523.030303" cy="106.588027" r="2.000000" style="fill: blue;"/>
<circle cx="529.090909" cy="81.984198" r="2.000000" style="fill: blue;"/>
<circle cx="535.151515" cy="60.847632" r="2.000000" style="fill: blue;"/>
<circle cx="541.212121" cy="43.709327" r="2.000000" style="fill: blue;"/>
<circle cx="547.272727" cy="30.999836" r="2.000000" style="fill: blue;"/>
<circle cx="553.333333" cy="23.038449" r="2.000000" style="fill: blue;"/>
<circle cx="559.393939" cy="20.025174" r="2.000000" style="fill: blue;"/>
<circle cx="565.454545" cy="22.035712" r="2.000000" style="fill: blue;"/>
<circle cx="571.515152" cy="29.019552" r="2.000000" style="fill: blue;"/>
<circle cx="577.575758" cy="40.801245" r="2.000000" style="fill: blue;"/>
<circle cx="583.636364" cy="57.084810" r="2.000000" style="fill: blue;"/>
<circle cx="589.696970" cy="77.461166" r="2.000000" style="fill: blue;"/>
<circle cx="595.757576" cy="101.418414" r="2.000000" style="fill: blue;"/>
<circle cx="601.818182" cy="128.354696" r="2.000000" style="fill: blue;"/>
<circle cx="607.878788" cy="157.593311" r="2.000000" style="fill: blue;"/>
<circle cx="613.939394" cy="188.399721" r="2.000000" style="fill: blue;"/>
<circle cx="620.000000" cy="220.000000" r="2.000000" style="fill: blue;"/>
<polyline points="20.000000 220.000000 26.060606 188.399721 32.121212 157.593311 38.181818 128.354696 44.242424 101.418414 50.303030 77.461166 56.363636 57.084810 62.424242 40.801245 68.484848 29.019552 74.545455 22.035712 80.606061 20.025174 86.666667 23.038449 92.727273 30.999836 98.787879 43.709327 104.848485 60.847632 110.909091 81.984198 116.969697 106.588027 123.030303 134.041018 129.090909 163.653489 135.151515 194.681509 141.212121 226.345587 147.272727 257.850249 153.333333 288.404029 159.393939 317.239347 165.454545 343.631797 171.515152 366.918342 177.575758 386.513971 183.636364 401.926399 189.696970 412.768432 195.757576 418.767693 201.818182 419.773468 207.878788 415.760489 213.939394 406.829572 220.000000 393.205081 226.060606 375.229293 232.121212 353.353800 238.181818 328.128163 244.242424 300.186107 250.303030 270.229597 256.363636 239.011209 262.424242 207.315216 268.484848 175.937893 274.545455 145.667509 280.606061 117.264522 286.666667 91.442478 292.727273 68.850085 298.787879 50.054914 304.848485 35.529141 310.909091 25.637686 316.969697 20.629045 323.030303 20.629045 329.090909 25.637686 335.151515 35.529141 341.212121 50.054914 347.272727 68.850085 353.333333 91.442478 359.393939 117.264522 365.454545 145.667509 371.515152 175.937893 377.575758 207.315216 383.636364 239.011209 389.696970 270.229597 395.757576 300.186107 401.818182 328.128163 407.878788 353.353800 413.939394 375.229293 420.000000 393.205081 426.060606 406.829572 432.121212 415.760489 438.181818 419.773468 444.242424 418.767693 450.303030 412.768432 456.363636 401.926399 462.424242 386.513971 468.484848 366.918342 474.545455 343.631797 480.606061 317.239347 486.666667 288.404029 492.727273 257.850249 498.787879 226.345587 504.848485 194.681509 510.909091 163.653489 516.969697 134.041018 523.030303 106.588027 529.090909 81.984198 535.151515 60.847632 541.212121 43.709327 547.272727 30.999836 553.333333 23.038449 559.393939 20.025174 565.454545 22.035712 571.515152 29.019552 577.575758 40.801245 583.636364 57.084810 589.696970 77.461166 595.757576 101.418414 601.818182 128.354696 607.878788 157.593311 613.939394 188.399721 620.000000 220.000000 " style="stroke: blue; fill: none;"/>
</svg>
